<svg xmlns="http://www.w3.org/2000/svg" width="24" height="19" viewBox="0 0 24 19">
    <g fill="#00B1F3" fill-rule="nonzero">
        <path d="M20.892.588H3.112C1.526.588.236 1.86.236 3.424V15.4c0 1.564 1.29 2.835 2.878 2.835h17.774c1.588 0 2.878-1.271 2.878-2.835V3.429c.005-1.564-1.286-2.84-2.873-2.84zM22.455 15.4c0 .849-.701 1.54-1.563 1.54H3.112c-.861 0-1.562-.691-1.562-1.54V3.429c0-.85.7-1.54 1.563-1.54h17.774c.862 0 1.563.69 1.563 1.54v11.97h.005z"/>
        <path d="M15.192 9.257l5.982-5.164a.644.644 0 0 0 .05-.93.705.705 0 0 0-.966-.049l-8.249 7.127-1.61-1.383c-.004-.005-.01-.01-.01-.015a1.002 1.002 0 0 0-.11-.093l-6.55-5.64a.701.701 0 0 0-.966.053.64.64 0 0 0 .055.93l6.053 5.208-6.027 5.432a.643.643 0 0 0-.03.93.7.7 0 0 0 .967.034l6.118-5.51 1.66 1.428a.698.698 0 0 0 .91-.005l1.706-1.471 6.083 5.563c.132.122.304.18.471.18.182 0 .36-.068.496-.204a.643.643 0 0 0-.025-.93l-6.008-5.491z"/>
    </g>
</svg>
