<?xml version="1.0" encoding="UTF-8"?>
<svg width="144px" height="26px" viewBox="0 0 144 26" version="1.1" xmlns="http://www.w3.org/2000/svg" xmlns:xlink="http://www.w3.org/1999/xlink">
    <!-- Generator: Sketch 48.2 (47327) - http://www.bohemiancoding.com/sketch -->
    <title>Logo - white</title>
    <desc>Created with Sketch.</desc>
    <defs></defs>
    <g id="M_header-01" stroke="none" stroke-width="1" fill="none" fill-rule="evenodd" transform="translate(-12.000000, -20.000000)">
        <g id="Logo---white" transform="translate(0.000000, 5.000000)" fill="#00B1F3">
            <g id="blue" transform="translate(12.000000, 15.000000)">
                <path d="M19.7706125,26 C17.8486103,26 16.0111412,25.4142398 14.4535316,24.3053953 C12.895922,25.4142398 11.0584529,26 9.13657573,26 C4.09860405,26 0,21.9403063 0,16.9501346 C0,13.427522 2.08906759,10.2041686 5.3254592,8.72756723 C5.49815178,3.91155046 9.58500123,0 14.4535316,0 C19.322187,0 23.4089114,3.91155046 23.5817291,8.72756723 C26.8179956,10.2041686 28.9070632,13.427522 28.9070632,16.9501346 C28.9070632,21.9403063 24.8084591,26 19.7706125,26 L19.7706125,26 Z M15.5883507,23.3498964 C16.835964,24.15366 18.2802793,24.5780234 19.7706125,24.5780234 C20.8113948,24.5780234 21.8220404,24.373893 22.7754135,23.9710822 C22.5113101,22.6608323 21.7952799,19.3508968 20.6306991,15.7113551 C19.927674,16.3518639 19.1323627,16.8768062 18.2646481,17.2726805 C18.1834914,19.5706343 17.23462,21.7245325 15.5883507,23.3498964 L15.5883507,23.3498964 Z M6.13152466,23.9710822 C7.08514788,24.373893 8.09579341,24.5780234 9.13657573,24.5780234 C10.626909,24.5780234 12.0712242,24.15366 13.3185874,23.3498964 C11.6723181,21.7244087 10.7234468,19.5706343 10.64229,17.2725566 C9.77470047,16.8768062 8.97951426,16.3518639 8.27648912,15.7112313 C7.1120334,19.3500298 6.39575307,22.6605846 6.13152466,23.9710822 L6.13152466,23.9710822 Z M5.40323964,10.2809652 C2.95353091,11.6267645 1.43568688,14.1739358 1.43568688,16.9501346 C1.43568688,19.4864058 2.69780583,21.839232 4.81663506,23.2624473 C5.20303628,21.4483123 6.00622562,17.9789619 7.16192792,14.5025512 L7.16405376,14.4961101 C6.22168495,13.261666 5.61407215,11.8067411 5.40323964,10.2809652 L5.40323964,10.2809652 Z M21.7451353,14.5024273 C22.901838,17.981687 23.7045271,21.449551 24.0904281,23.2624473 C26.2092574,21.839232 27.4715014,19.4864058 27.4715014,16.9501346 C27.4715014,14.1739358 25.9535323,11.6267645 23.5038236,10.2809652 C23.292991,11.8067411 22.6853783,13.2617899 21.7430094,14.4963579 L21.7451353,14.5024273 L21.7451353,14.5024273 Z M12.1187428,17.8003478 C12.3173206,19.5723685 13.143644,21.2225054 14.4535316,22.4615326 C15.7635443,21.2223816 16.5897426,19.5722446 16.7883204,17.8003478 C16.0292733,17.999152 15.244091,18.0999786 14.4535316,18.0999786 C13.6628472,18.0999786 12.8777899,17.999152 12.1187428,17.8003478 L12.1187428,17.8003478 Z M12.0974845,16.3111122 C12.8592827,16.554508 13.6517178,16.678002 14.4535316,16.678002 C15.2553454,16.678002 16.0477805,16.554508 16.8097037,16.3111122 C16.6540178,14.456597 15.8191911,12.7301589 14.4535316,11.4387366 C13.0879972,12.7301589 12.2530454,14.4564732 12.0974845,16.3111122 L12.0974845,16.3111122 Z M15.5883507,10.5502489 C16.9981525,11.9448512 17.9177624,13.7744694 18.1867426,15.7190348 C18.9102758,15.3204354 19.562281,14.8101093 20.1260016,14.2006908 C19.4774978,12.3445654 18.8121124,10.7615636 18.1481025,9.49466663 C17.2342449,9.68913556 16.3736581,10.0440104 15.5883507,10.5502489 L15.5883507,10.5502489 Z M8.7810616,14.2006908 C9.34503231,14.8101093 9.99691244,15.3204354 10.7203206,15.7189109 C10.9891758,13.7743455 11.9089107,11.9448512 13.3188375,10.5502489 C12.5334051,10.0440104 11.6729434,9.68913556 10.7592108,9.49466663 C10.0949508,10.7616874 9.4295654,12.3445654 8.7810616,14.2006908 L8.7810616,14.2006908 Z M19.6656965,9.32298897 C20.1681431,10.3286534 20.6675886,11.5004216 21.151653,12.8089374 C21.698367,11.8554203 22.0343735,10.780515 22.1266596,9.6890117 C21.3647364,9.44561587 20.5723013,9.32212191 19.7706125,9.32212191 C19.736099,9.32212191 19.7013354,9.32236964 19.6656965,9.32298897 L19.6656965,9.32298897 Z M6.78052866,9.6890117 C6.87281478,10.780515 7.20894633,11.8552964 7.75541019,12.8086896 C8.23947464,11.5004216 8.7389201,10.3286534 9.24136674,9.32298897 C9.20585284,9.32236964 9.17083914,9.32212191 9.13657573,9.32212191 C8.33488698,9.32212191 7.54245185,9.44561587 6.78052866,9.6890117 L6.78052866,9.6890117 Z M11.5015013,8.2098092 C12.5646674,8.49135561 13.5573058,8.95696625 14.4535316,9.59487387 C15.3497573,8.95709011 16.3422708,8.49135561 17.4054369,8.2098092 C16.3832868,6.61801291 15.3902732,5.8110288 14.4535316,5.8110288 C13.51679,5.8110288 12.5237764,6.61801291 11.5015013,8.2098092 L11.5015013,8.2098092 Z M19.7706125,7.9001453 C20.5611719,7.9001453 21.3462292,8.000848 22.1054013,8.19977609 C21.8985703,6.35702818 21.0199765,4.6562302 19.6250555,3.40246302 C18.2039994,2.12540911 16.3674056,1.42210047 14.4535316,1.42210047 C12.5396576,1.42210047 10.7030638,2.12540911 9.2821327,3.40246302 C7.88721177,4.6562302 7.00861792,6.35690431 6.80178698,8.19977609 C7.56083404,8.000848 8.34589129,7.9001453 9.13657573,7.9001453 C9.41418438,7.9001453 9.70267228,7.91401825 9.99428641,7.94139253 C11.4068392,5.58435483 12.9070514,4.38892832 14.4535316,4.38892832 C16.0000118,4.38892832 17.500224,5.58435483 18.9127768,7.94139253 C19.2043909,7.91401825 19.4927538,7.9001453 19.7706125,7.9001453 L19.7706125,7.9001453 Z" id="Fill-1"></path>
                <path d="M139.10167,18.5077953 C138.836553,18.3946306 138.610332,18.2342319 138.423257,18.0261073 C138.236056,17.8183517 138.091013,17.5691434 137.988128,17.2783593 C137.885243,16.9879443 137.833675,16.6654249 137.833675,16.3105552 L137.833675,13.9807157 C137.833675,13.5891904 137.894528,13.2452682 138.016234,12.9487029 C138.137939,12.6521376 138.298289,12.4041593 138.497911,12.2055061 C138.697659,12.0068529 138.930028,11.8583857 139.195271,11.7604737 C139.460388,11.6629306 139.733158,11.6139746 140.013834,11.6139746 C140.313329,11.6139746 140.592374,11.6674818 140.851217,11.7744963 C141.110186,11.8813877 141.322481,12.0467065 141.487724,12.2697148 C141.652967,12.492969 141.782326,12.782154 141.876178,13.1367777 C141.944558,13.3996396 141.992864,13.699403 142.020969,14.0355759 C142.049075,14.3719949 142.063378,14.7298167 142.063378,15.1090414 C142.063378,15.4022856 142.049075,15.7297251 142.020969,16.0904991 C141.992864,16.4515191 141.957231,16.7480843 141.913568,16.980195 C141.80742,17.512438 141.598514,17.9281952 141.286345,18.2280817 C140.974554,18.5275991 140.537794,18.6772963 139.976444,18.6772963 C139.658379,18.6772963 139.366787,18.6208369 139.10167,18.5077953 L139.10167,18.5077953 Z M137.833675,23.1181493 L137.833675,19.0717736 C137.977213,19.2551742 138.16893,19.4448481 138.40933,19.6405492 C138.649353,19.8363733 138.945586,19.9906217 139.29803,20.1037864 C139.650474,20.2168281 140.066656,20.2736564 140.547455,20.2736564 C140.940175,20.2736564 141.339545,20.2094478 141.744937,20.0810304 C142.150579,19.9523671 142.512308,19.7277598 142.830373,19.4065935 C143.148689,19.0856732 143.397997,18.6834465 143.579175,18.2005285 C143.722336,17.8274541 143.828483,17.3885719 143.89724,16.883882 C143.965621,16.3795611 144,15.7877835 144,15.1090414 C144,14.3444417 143.956462,13.6732029 143.869135,13.095202 C143.781558,12.517324 143.628736,12.0114041 143.410544,11.5770731 C142.874037,10.537557 141.929126,10.0177375 140.575561,10.0177375 C139.907686,10.0177375 139.344956,10.150583 138.886365,10.416643 C138.427899,10.682826 138.058266,11.0360967 137.777465,11.4762089 L137.730916,10.3113506 L135.952888,10.3113506 L135.952888,23.1181493 L137.833675,23.1181493 L137.833675,23.1181493 Z M129.48368,18.5077953 C129.218563,18.3946306 128.992717,18.2342319 128.805517,18.0261073 C128.618065,17.8183517 128.473274,17.5691434 128.370138,17.2783593 C128.267378,16.9879443 128.21581,16.6654249 128.21581,16.3105552 L128.21581,13.9807157 C128.21581,13.5891904 128.276537,13.2452682 128.398243,12.9487029 C128.519948,12.6521376 128.680675,12.4041593 128.880297,12.2055061 C129.080044,12.0068529 129.312037,11.8583857 129.57728,11.7604737 C129.842397,11.6629306 130.115544,11.6139746 130.396219,11.6139746 C130.695715,11.6139746 130.974759,11.6674818 131.233603,11.7744963 C131.492446,11.8813877 131.704364,12.0467065 131.87011,12.2697148 C132.035102,12.492969 132.164587,12.782154 132.258187,13.1367777 C132.326944,13.3996396 132.37525,13.699403 132.403355,14.0355759 C132.43146,14.3719949 132.445387,14.7298167 132.445387,15.1090414 C132.445387,15.4022856 132.43146,15.7297251 132.403355,16.0904991 C132.37525,16.4515191 132.33924,16.7480843 132.295577,16.980195 C132.18943,17.512438 131.980523,17.9281952 131.668731,18.2280817 C131.356688,18.5275991 130.92018,18.6772963 130.358829,18.6772963 C130.040388,18.6772963 129.748797,18.6208369 129.48368,18.5077953 L129.48368,18.5077953 Z M128.21581,23.1181493 L128.21581,19.0717736 C128.359222,19.2551742 128.551065,19.4448481 128.791339,19.6405492 C129.031362,19.8363733 129.327972,19.9906217 129.680416,20.1037864 C130.03286,20.2168281 130.449042,20.2736564 130.929465,20.2736564 C131.322561,20.2736564 131.721554,20.2094478 132.127322,20.0810304 C132.532589,19.9523671 132.894694,19.7277598 133.212633,19.4065935 C133.530824,19.0856732 133.780383,18.6834465 133.961185,18.2005285 C134.104722,17.8274541 134.210869,17.3885719 134.27925,16.883882 C134.348007,16.3795611 134.382386,15.7877835 134.382386,15.1090414 C134.382386,14.3444417 134.338471,13.6732029 134.251145,13.095202 C134.163943,12.517324 134.011121,12.0114041 133.79293,11.5770731 C133.256297,10.537557 132.311135,10.0177375 130.95757,10.0177375 C130.290072,10.0177375 129.726965,10.150583 129.26875,10.416643 C128.810159,10.682826 128.440526,11.0360967 128.159851,11.4762089 L128.112925,10.3113506 L126.335273,10.3113506 L126.335273,23.1181493 L128.21581,23.1181493 L128.21581,23.1181493 Z M121.391147,19.8561771 C121.874581,19.5780626 122.284866,19.2095393 122.621752,18.7508533 L122.640573,19.9708179 L124.41835,19.9708179 L124.41835,10.3113506 L122.537437,10.3113506 L122.537437,16.0078397 C122.537437,16.3322041 122.465668,16.6884269 122.322131,17.076754 C122.178719,17.4650811 121.924393,17.8090033 121.559778,18.1087667 C121.194787,18.4082841 120.781491,18.5579813 120.320014,18.5579813 C119.758538,18.5579813 119.340348,18.4189856 119.065946,18.1408711 C118.791544,17.8623875 118.654281,17.4268265 118.654281,16.8336959 L118.654281,10.3113506 L116.773493,10.3113506 L116.773493,17.3380168 C116.773493,17.9006421 116.857808,18.3700295 117.026063,18.7463021 C117.194694,19.1223287 117.414517,19.4238142 117.685907,19.6496516 C117.957047,19.876227 118.262816,20.0366256 118.602713,20.1313395 C118.94261,20.2262995 119.284138,20.2736564 119.627297,20.2736564 C120.320014,20.2736564 120.907839,20.1345377 121.391147,19.8561771 L121.391147,19.8561771 Z M112.422587,19.9708179 L112.422587,15.5216005 C112.422587,15.1181438 112.475409,14.6503554 112.581556,14.1181124 C112.687327,13.5862383 112.944916,13.119926 113.35357,12.7192984 C113.761848,12.3186708 114.312659,12.1182955 115.005,12.1182955 C115.235738,12.1182955 115.407381,12.130596 115.519676,12.154951 L115.519676,10.2928999 L115.276391,10.2928999 C114.640009,10.2928999 114.065986,10.4733483 113.554573,10.8341223 C113.043033,11.1948962 112.63739,11.6995861 112.338271,12.347823 L112.319325,10.3113506 L110.541673,10.3113506 L110.541673,19.9708179 L112.422587,19.9708179 L112.422587,19.9708179 Z M103.337465,19.9708179 L103.337465,16.0996015 L104.638207,14.8063259 L107.220621,19.9708179 L109.354104,19.9708179 L106.013479,13.4300219 L109.138799,10.3113506 L106.902556,10.3113506 L103.337465,13.8796055 L103.337465,6.89795918 L101.456677,6.89795918 L101.456677,19.9708179 L103.337465,19.9708179 L103.337465,19.9708179 Z M93.5063014,19.9708179 L93.5063014,14.2740828 C93.5063014,13.9438141 93.5793247,13.5800881 93.726124,13.1824126 C93.8725469,12.7851061 94.1268736,12.4395848 94.4884768,12.1458486 C94.8502053,11.8522355 95.2685207,11.7057364 95.7425445,11.7057364 C96.3038951,11.7057364 96.7122983,11.8463312 96.9681307,12.1277669 C97.2240885,12.4090795 97.3519419,12.8430415 97.3519419,13.4300219 L97.3519419,19.9708179 L99.2328553,19.9708179 L99.2328553,12.9439057 C99.2328553,12.3753761 99.1280883,11.8615839 98.9191815,11.4030209 C98.7101493,10.9443349 98.3888219,10.5988135 97.9553248,10.3660879 C97.5219531,10.1341003 97.0150563,10.0177375 96.4348853,10.0177375 C95.736271,10.0177375 95.1434276,10.1553802 94.6571078,10.4306656 C94.1704115,10.705828 93.7588716,11.0727522 93.4219859,11.5313152 L93.4031655,10.3113506 L91.625388,10.3113506 L91.625388,19.9708179 L93.5063014,19.9708179 L93.5063014,19.9708179 Z M83.9477832,12.9669077 C84.0569417,12.5970313 84.2017335,12.3034182 84.3829115,12.0861912 C84.5637131,11.8694562 84.7790187,11.7164378 85.0285776,11.6276282 C85.2778855,11.5390645 85.5526637,11.4946597 85.851783,11.4946597 C86.1702247,11.4946597 86.4866588,11.5556702 86.8017127,11.6781833 C87.1163902,11.8003273 87.3693368,12.081763 87.5594231,12.5222442 C87.7498858,12.9623565 87.8451171,13.5739378 87.8451171,14.3567423 L83.7653506,14.3567423 C83.7775211,13.8002672 83.8383738,13.33703 83.9477832,12.9669077 L83.9477832,12.9669077 Z M87.4847687,20.0625797 C87.9680773,19.9218619 88.3767315,19.7063569 88.7107313,19.4159419 C89.0442293,19.1255269 89.3295469,18.7599557 89.5666843,18.3197205 L88.0788668,17.5675443 C87.9978135,17.7019889 87.8791194,17.8579593 87.7234117,18.0352097 C87.5673277,18.212829 87.3442429,18.3670774 87.0542828,18.4983239 C86.7643228,18.6299393 86.4350908,18.695747 86.0670887,18.695747 C85.7238041,18.695747 85.4103813,18.6529413 85.1268202,18.5674527 C84.8427572,18.4818412 84.5980917,18.3349731 84.3921962,18.1269715 C84.1861753,17.9192159 84.0272054,17.6407323 83.9150357,17.2922589 C83.802615,16.9435394 83.7464047,16.5095775 83.7464047,15.9896349 L83.7464047,15.7235749 L89.6882642,15.7235749 L89.6882642,14.7145641 C89.6882642,14.2802331 89.6664326,13.8244992 89.6228946,13.3477314 C89.5792312,12.8705947 89.4777264,12.4255622 89.3186311,12.0130031 C89.1596612,11.600075 88.9242804,11.2347499 88.6121123,10.9167817 C88.331437,10.6416193 87.9789931,10.4227932 87.5547807,10.2607955 C87.1306938,10.0986748 86.6066076,10.0177375 85.9827732,10.0177375 C85.3092529,10.0177375 84.7382411,10.1019959 84.2704908,10.2698979 C83.802615,10.4380459 83.409519,10.6844251 83.0914538,11.0085435 C82.8544419,11.2409001 82.6408928,11.5420166 82.4504301,11.9118929 C82.2603438,12.2820153 82.1151756,12.7619812 82.0153018,13.3522826 C81.9155536,13.9424611 81.8656167,14.6075496 81.8656167,15.3475483 C81.8656167,15.9160779 81.8969841,16.4285171 81.9590915,16.883882 C82.0215753,17.3396159 82.1307338,17.7600473 82.2868179,18.1454222 C82.5489237,18.8121099 82.9777785,19.3332825 83.5735077,19.709309 C84.168986,20.0855816 84.9535468,20.2736564 85.9269393,20.2736564 C86.4820164,20.2736564 87.0013347,20.2032975 87.4847687,20.0625797 L87.4847687,20.0625797 Z M77.8188486,20.1773434 C78.1397996,20.1131348 78.4238626,20.0288763 78.6701592,19.924814 C78.9164559,19.8211207 79.1287503,19.7063569 79.3065406,19.5808917 C79.4844564,19.4557955 79.6229747,19.3287313 79.7228484,19.200437 C79.9161969,18.9618071 80.072281,18.7034964 80.1907242,18.4251358 C80.3092929,18.1470213 80.3685145,17.7967028 80.3685145,17.3746723 C80.3685145,17.0200486 80.3278624,16.7173331 80.2468091,16.4667717 C80.1658813,16.2158413 80.072281,16.0048875 79.9661338,15.8337875 C79.8164487,15.6133623 79.601143,15.3919531 79.3204677,15.1686989 C79.0397924,14.9453216 78.4909888,14.7113659 77.6736804,14.4669548 C77.2620149,14.350592 76.8970241,14.2344752 76.5789589,14.1181124 C76.2606428,14.0021186 75.9908833,13.8783754 75.7696806,13.74676 C75.5481014,13.6151445 75.381227,13.4715976 75.2688063,13.3156271 C75.156762,13.1597797 75.1004262,12.9808072 75.1004262,12.7788329 C75.1004262,12.3630756 75.2344277,12.0483056 75.5028069,11.8340307 C75.6647881,11.6934359 75.8615243,11.5955238 76.0923882,11.5404176 C76.3231266,11.4853113 76.5945171,11.4577581 76.9063089,11.4577581 C77.3679112,11.4577581 77.7579959,11.5543171 78.0760611,11.7469431 C78.3941263,11.9394461 78.6436852,12.2376104 78.8246122,12.6411902 L80.3311246,11.9257925 C80.0627453,11.2837059 79.6355217,10.8053391 79.0490772,10.4902 C78.4628836,10.175184 77.7420613,10.0177375 76.8877394,10.0177375 C76.4074421,10.0177375 75.9442087,10.0760419 75.49829,10.1920357 C75.0522459,10.3081525 74.677594,10.4796216 74.375087,10.705828 C74.07258,10.9320343 73.8434727,11.1948962 73.6873886,11.4946597 C73.5502504,11.7332895 73.4550191,11.9808988 73.4020709,12.2376104 C73.3492483,12.4946911 73.3223978,12.7299998 73.3223978,12.9439057 C73.3223978,13.1885628 73.3601641,13.4472426 73.4348185,13.7192068 C73.5098492,13.9914171 73.6374517,14.2407484 73.8187552,14.4669548 C73.9617904,14.6442052 74.1678114,14.8293278 74.4359397,15.0218308 C74.704068,15.2143338 75.0409537,15.387402 75.4465966,15.5400513 L76.8877394,16.062946 C77.1433208,16.160735 77.403921,16.2647973 77.669038,16.3747639 C77.9341551,16.4849764 78.144442,16.6333206 78.3005261,16.8197963 C78.4566101,17.006395 78.5346522,17.2553574 78.5346522,17.5675443 C78.5346522,17.7814502 78.4847153,17.9636207 78.3848416,18.1133179 C78.2849679,18.2630151 78.1507155,18.3839291 77.9824609,18.4756909 C77.8142063,18.5674527 77.6174701,18.6332605 77.3930051,18.6727451 C77.1685402,18.7125987 76.9281406,18.7324026 76.6725592,18.7324026 C76.3918839,18.7324026 76.142325,18.6989452 75.9240081,18.6315384 C75.7055657,18.5641316 75.5090804,18.4711397 75.3343014,18.3518248 C75.1596478,18.2326329 75.0069514,18.0935141 74.8759613,17.9343455 C74.7447202,17.7752999 74.6294137,17.6012477 74.52954,17.4115738 L72.9762274,18.090316 C73.1011951,18.4144344 73.2724609,18.7080476 73.4910288,18.9709094 C73.7092203,19.2337713 73.9714516,19.4603467 74.2769698,19.6496516 C74.595286,19.8393254 74.94911,19.9906217 75.3391947,20.1037864 C75.7290285,20.2168281 76.2046834,20.2736564 76.7661594,20.2736564 C77.1463321,20.2736564 77.4973957,20.2415521 77.8188486,20.1773434 L77.8188486,20.1773434 Z M69.2155298,20.1773434 C69.5364808,20.1131348 69.8205438,20.0288763 70.0668404,19.924814 C70.3135135,19.8211207 70.5254315,19.7063569 70.7033473,19.5808917 C70.8811376,19.4557955 71.0196559,19.3287313 71.1195296,19.200437 C71.3130036,18.9618071 71.4689622,18.7034964 71.5876564,18.4251358 C71.7060996,18.1470213 71.7651957,17.7967028 71.7651957,17.3746723 C71.7651957,17.0200486 71.7245436,16.7173331 71.6436158,16.4667717 C71.5625625,16.2158413 71.4689622,16.0048875 71.362815,15.8337875 C71.2131299,15.6133623 70.9982006,15.3919531 70.7171489,15.1686989 C70.4364736,14.9453216 69.88767,14.7113659 69.0703616,14.4669548 C68.6586961,14.350592 68.2937053,14.2344752 67.9756401,14.1181124 C67.6577004,14.0021186 67.3875645,13.8783754 67.1663618,13.74676 C66.9447826,13.6151445 66.7779082,13.4715976 66.6657384,13.3156271 C66.5533177,13.1597797 66.4972329,12.9808072 66.4972329,12.7788329 C66.4972329,12.3630756 66.6313598,12.0483056 66.8994881,11.8340307 C67.0618457,11.6934359 67.2582055,11.5955238 67.4890694,11.5404176 C67.7198078,11.4853113 67.9911983,11.4577581 68.3029901,11.4577581 C68.7648433,11.4577581 69.1546771,11.5543171 69.4727423,11.7469431 C69.7910584,11.9394461 70.0403664,12.2376104 70.2212934,12.6411902 L71.7279313,11.9257925 C71.4598029,11.2837059 71.0322028,10.8053391 70.4460093,10.4902 C69.8595648,10.175184 69.1391189,10.0177375 68.284546,10.0177375 C67.8041233,10.0177375 67.3408899,10.0760419 66.8948458,10.1920357 C66.4489271,10.3081525 66.0746516,10.4796216 65.7721446,10.705828 C65.4692612,10.9320343 65.2401539,11.1948962 65.0840698,11.4946597 C64.9469316,11.7332895 64.8517003,11.9808988 64.7987521,12.2376104 C64.7459295,12.4946911 64.7194554,12.7299998 64.7194554,12.9439057 C64.7194554,13.1885628 64.7568453,13.4472426 64.8314997,13.7192068 C64.9065304,13.9914171 65.0342584,14.2407484 65.2153109,14.4669548 C65.358848,14.6442052 65.5644925,14.8293278 65.8329973,15.0218308 C66.1011256,15.2143338 66.4380113,15.387402 66.8432778,15.5400513 L68.284546,16.062946 C68.540002,16.160735 68.8006021,16.2647973 69.0657192,16.3747639 C69.3308363,16.4849764 69.5414996,16.6333206 69.6975837,16.8197963 C69.8532913,17.006395 69.9313334,17.2553574 69.9313334,17.5675443 C69.9313334,17.7814502 69.8813965,17.9636207 69.7815228,18.1133179 C69.681649,18.2630151 69.5477731,18.3839291 69.379142,18.4756909 C69.2108874,18.5674527 69.0141512,18.6332605 68.7896863,18.6727451 C68.5652213,18.7125987 68.3248218,18.7324026 68.0692404,18.7324026 C67.7885651,18.7324026 67.5388807,18.6989452 67.3206893,18.6315384 C67.1022469,18.5641316 66.9057616,18.4711397 66.7312335,18.3518248 C66.556329,18.2326329 66.4036326,18.0935141 66.2726425,17.9343455 C66.1417778,17.7752999 66.0260949,17.6012477 65.9264721,17.4115738 L64.3729086,18.090316 C64.4978762,18.4144344 64.6691421,18.7080476 64.88771,18.9709094 C65.1059015,19.2337713 65.3681328,19.4603467 65.673902,19.6496516 C65.9919672,19.8393254 66.3457912,19.9906217 66.7358759,20.1037864 C67.1257097,20.2168281 67.60149,20.2736564 68.1628406,20.2736564 C68.5433896,20.2736564 68.8942024,20.2415521 69.2155298,20.1773434 L69.2155298,20.1773434 Z M57.7483694,23.2000707 C58.1038246,23.1021586 58.4499949,22.8668499 58.7868806,22.4938984 C59.1237662,22.120824 59.4355579,21.567547 59.7225067,20.8333296 L63.914694,10.3113506 L62.0430653,10.3113506 L59.4699366,16.9986457 L57.0183878,10.3113506 L55.1000845,10.3113506 L58.4969205,19.5213573 L58.0571499,20.4388523 C57.9259088,20.7753942 57.7437271,21.0719595 57.5097264,21.3289172 C57.2756003,21.5856288 56.9403458,21.7140461 56.5035864,21.7140461 C56.3478788,21.7140461 56.2010794,21.7016226 56.0639413,21.6773906 L56.0639413,23.3102833 C56.2324468,23.3346383 56.4536496,23.3469388 56.7284278,23.3469388 C57.0527665,23.3469388 57.3926634,23.2979827 57.7483694,23.2000707 L57.7483694,23.2000707 Z M48.3972523,19.9708179 L48.3972523,14.2740828 C48.3972523,13.9438141 48.470652,13.5800881 48.6174513,13.1824126 C48.7638742,12.7851061 49.0180755,12.4395848 49.3798041,12.1458486 C49.7415327,11.8522355 50.1597225,11.7057364 50.6338718,11.7057364 C51.1952224,11.7057364 51.6035002,11.8463312 51.859458,12.1277669 C52.1152903,12.4090795 52.2432692,12.8430415 52.2432692,13.4300219 L52.2432692,19.9708179 L54.1238062,19.9708179 L54.1238062,12.9439057 C54.1238062,12.3753761 54.0194156,11.8615839 53.8103834,11.4030209 C53.6014767,10.9443349 53.2801493,10.5988135 52.8466521,10.3660879 C52.4132804,10.1341003 51.9063836,10.0177375 51.3260871,10.0177375 C50.6523158,10.0177375 50.0800494,10.1430797 49.6092878,10.393641 C49.1381498,10.6445714 48.734138,10.9871406 48.3972523,11.4211026 L48.3972523,6.89795918 L46.5167153,6.89795918 L46.5167153,19.9708179 L48.3972523,19.9708179 L48.3972523,19.9708179 Z M44.8910069,19.9710639 L44.8910069,18.4485068 C44.653995,18.4727388 44.4169831,18.4850393 44.1798457,18.4850393 C43.8866235,18.4850393 43.647855,18.4481378 43.4640422,18.3745807 C43.2799784,18.3013927 43.1348102,18.1914261 43.0290394,18.0449271 C42.9228922,17.898182 42.8511236,17.7149044 42.8137337,17.4946023 C42.7763438,17.2744232 42.7575233,17.0177115 42.7575233,16.7240983 L42.7575233,11.7604737 L44.7882474,11.7604737 L44.7882474,10.3113506 L42.7575233,10.3113506 L42.7575233,6.8983282 L40.8862711,6.8983282 L40.8862711,10.3113506 L39.6133829,10.3113506 L39.6133829,11.7604737 L40.8862711,11.7604737 L40.8862711,16.7423031 C40.8862711,17.2376446 40.9283034,17.6889503 41.0124934,18.0953592 C41.096558,18.502137 41.2496308,18.8476583 41.4710845,19.1319231 C41.6922872,19.4164339 41.9964253,19.636121 42.3832478,19.7919685 C42.7700703,19.9479389 43.2660513,20.0266622 43.8710652,20.0266622 C44.2327938,20.0266622 44.5729417,20.0077194 44.8910069,19.9710639 L44.8910069,19.9710639 Z" id="Fill-2"></path>
            </g>
        </g>
    </g>
</svg>