<svg xmlns="http://www.w3.org/2000/svg" width="95" height="72" viewBox="0 0 95 72">
    <g fill="#00A0F0" fill-rule="evenodd">
        <path d="M63.853 16.745C63.705 7.69 56.248.368 47.098.368c-9.15 0-16.607 7.322-16.755 16.377-5.918 2.574-10.065 8.444-10.065 15.26 0 9.182 7.52 16.652 16.763 16.652 3.77 0 7.253-1.244 10.057-3.34a16.747 16.747 0 0 0 10.057 3.34c9.243 0 16.762-7.47 16.762-16.651 0-6.817-4.146-12.687-10.064-15.26zM53.729 30.476c-.388-4.205-2.355-7.962-5.306-10.68a15.055 15.055 0 0 1 5.942-2.515c1.481 2.767 2.845 6.127 4.053 9.628a15.156 15.156 0 0 1-4.69 3.567zm-6.631 12.688c-2.872-2.557-4.753-6.187-4.998-10.25 1.579.492 3.258.757 4.998.757 1.74 0 3.419-.265 4.998-.757-.246 4.063-2.127 7.693-4.998 10.25zm-11.32-16.255c1.208-3.5 2.571-6.861 4.053-9.629a15.056 15.056 0 0 1 5.942 2.517c-2.952 2.717-4.919 6.474-5.307 10.68a15.162 15.162 0 0 1-4.689-3.568zm-1.226-1.578a14.826 14.826 0 0 1-2.514-7.461 15.1 15.1 0 0 1 5.003-.85c.344 0 .685.015 1.024.038-1.193 2.292-2.365 5.049-3.513 8.273zm6.144-9.573c1.977-3.27 4.138-5.399 6.402-5.399 2.264 0 4.424 2.13 6.4 5.399a16.75 16.75 0 0 0-6.4 2.936 16.752 16.752 0 0 0-6.402-2.936zm6.402 16.248a15.1 15.1 0 0 1-5.003-.851c.231-4.086 2.118-7.738 5.003-10.307 2.885 2.569 4.771 6.221 5.003 10.307-1.567.549-3.25.85-5.003.85zm9.032-14.948c.34-.023.68-.039 1.025-.039 1.753 0 3.436.302 5.003.851a14.823 14.823 0 0 1-2.515 7.462c-1.147-3.225-2.32-5.982-3.513-8.274zM47.098 2.033c8.01 0 14.58 6.236 15.056 14.078a16.811 16.811 0 0 0-6.9-.647c-2.627-4.5-5.354-6.77-8.156-6.77-2.802 0-5.53 2.27-8.156 6.77a16.808 16.808 0 0 0-6.9.646c.475-7.84 7.045-14.077 15.056-14.077zM21.955 32.006c0-5.901 3.452-11.015 8.454-13.457a16.501 16.501 0 0 0 3.481 8.705l-.091.27c-2.41 7.27-4.02 14.612-4.575 17.296-4.355-2.632-7.27-7.391-7.27-12.814zM37.04 46.992c-2.239 0-4.363-.49-6.275-1.363.815-4.147 2.355-10.633 4.408-16.92a16.83 16.83 0 0 0 5.226 3.57c.077 4.71 2.13 8.95 5.373 11.936a15.067 15.067 0 0 1-8.732 2.777zm11.382-2.777c3.242-2.986 5.295-7.225 5.373-11.935a16.83 16.83 0 0 0 5.225-3.572c2.053 6.288 3.594 12.774 4.408 16.921a15.07 15.07 0 0 1-6.274 1.363 15.067 15.067 0 0 1-8.732-2.777zm16.548.605c-.554-2.684-2.165-10.026-4.575-17.296l-.09-.27a16.5 16.5 0 0 0 3.48-8.705c5.003 2.442 8.455 7.556 8.455 13.457 0 5.423-2.915 10.182-7.27 12.814zM89.627 67.306a1.71 1.71 0 0 1-.61-.44 2.005 2.005 0 0 1-.392-.68 2.663 2.663 0 0 1-.138-.882V63.18c0-.357.054-.67.164-.94.11-.271.253-.497.433-.678.18-.181.389-.316.627-.406.238-.088.483-.133.736-.133.27 0 .52.049.753.146.233.098.424.248.572.452.149.203.265.466.35.79.061.24.104.512.13.818a11.868 11.868 0 0 1 0 1.872c-.026.33-.058.6-.097.812-.095.485-.283.864-.564 1.137-.28.273-.673.409-1.178.409-.286 0-.548-.051-.786-.154zm-1.14 4.2V67.82c.129.166.301.34.517.518.216.178.482.319.8.422a3.65 3.65 0 0 0 1.123.155c.353 0 .712-.059 1.077-.176.364-.117.69-.322.976-.614.286-.293.51-.66.673-1.1.129-.34.224-.74.286-1.2.061-.459.092-.998.092-1.616 0-.697-.039-1.309-.117-1.835a4.646 4.646 0 0 0-.413-1.384c-.482-.947-1.332-1.42-2.549-1.42-.6 0-1.106.12-1.519.363a2.893 2.893 0 0 0-.997.965l-.042-1.06h-1.599v11.669h1.692zm-7.51-4.2a1.71 1.71 0 0 1-.609-.44 2.01 2.01 0 0 1-.392-.68 2.657 2.657 0 0 1-.138-.882V63.18c0-.357.055-.67.164-.94.11-.271.254-.497.433-.678.18-.181.389-.316.627-.406.239-.088.484-.133.736-.133.27 0 .52.049.754.146.232.098.423.248.572.452.148.203.265.466.349.79.062.24.105.512.13.818a12.029 12.029 0 0 1 0 1.873c-.025.33-.057.6-.097.81-.095.486-.283.865-.563 1.138-.28.273-.673.409-1.178.409-.286 0-.549-.051-.787-.154zm-1.14 4.2V67.82c.13.166.302.34.518.518.216.178.483.319.8.422a3.65 3.65 0 0 0 1.123.155c.354 0 .712-.059 1.077-.176.365-.117.69-.322.976-.614.286-.293.51-.66.673-1.1.13-.34.225-.74.286-1.2.062-.459.093-.998.093-1.616 0-.697-.04-1.309-.118-1.835a4.64 4.64 0 0 0-.412-1.384c-.483-.947-1.333-1.42-2.55-1.42-.6 0-1.106.12-1.518.363a2.896 2.896 0 0 0-.997.965l-.043-1.06h-1.598v11.669h1.69zm-6.136-2.972c.435-.253.803-.589 1.107-1.007l.016 1.112h1.6v-8.802h-1.692v5.19c0 .296-.065.62-.194.975-.129.354-.358.667-.686.94-.328.273-.7.41-1.114.41-.505 0-.881-.127-1.128-.38-.247-.254-.37-.651-.37-1.192v-5.943h-1.691v6.403c0 .513.075.94.227 1.283.151.343.349.617.593.823.244.206.519.353.824.439.306.086.613.13.922.13.623 0 1.151-.127 1.586-.38zm-8.065.105v-4.054c0-.368.048-.794.143-1.28.095-.484.327-.909.694-1.274.367-.365.863-.547 1.485-.547.208 0 .362.01.463.033V59.82h-.219c-.572 0-1.088.165-1.548.493-.46.33-.825.789-1.094 1.38l-.017-1.856h-1.598v8.802h1.691zm-8.17 0V65.11l1.17-1.178 2.322 4.706h1.919l-3.004-5.96 2.81-2.842h-2.01l-3.206 3.251v-6.361h-1.692v11.912h1.692zm-8.84 0v-5.191c0-.301.066-.632.198-.995.131-.362.36-.677.685-.944.325-.268.701-.401 1.128-.401.505 0 .872.128 1.102.384.23.257.345.652.345 1.187v5.96h1.692v-6.403c0-.518-.095-.986-.283-1.404a1.955 1.955 0 0 0-.866-.945c-.39-.212-.846-.318-1.368-.318-.628 0-1.16.126-1.598.377-.438.25-.808.585-1.11 1.003l-.018-1.112h-1.598v8.802h1.69zm-8.595-6.382c.098-.337.228-.605.39-.803a1.33 1.33 0 0 1 .582-.418 2.313 2.313 0 0 1 1.594.046c.283.112.51.368.681.77.172.4.257.958.257 1.671h-3.668c.01-.507.065-.93.164-1.266zm3.18 6.465a2.863 2.863 0 0 0 1.103-.589c.3-.265.556-.597.77-.999l-1.338-.685a3.11 3.11 0 0 1-.32.426 1.75 1.75 0 0 1-.602.422 2.1 2.1 0 0 1-.888.18c-.308 0-.59-.039-.845-.117a1.537 1.537 0 0 1-.66-.401 1.882 1.882 0 0 1-.43-.76c-.1-.319-.151-.714-.151-1.188v-.242h5.343v-.92c0-.396-.02-.81-.06-1.245-.039-.435-.13-.84-.273-1.216a2.896 2.896 0 0 0-.635-1c-.252-.25-.57-.45-.95-.597-.382-.148-.853-.222-1.414-.222-.606 0-1.12.077-1.54.23a2.77 2.77 0 0 0-1.06.673 3.18 3.18 0 0 0-.577.823c-.17.338-.301.775-.391 1.313-.09.538-.135 1.144-.135 1.818 0 .518.029.985.084 1.4.056.415.155.798.295 1.15a2.882 2.882 0 0 0 1.157 1.424c.536.343 1.241.515 2.116.515.5 0 .967-.065 1.401-.193zm-8.692.105c.289-.059.544-.135.766-.23.221-.095.412-.2.572-.314.16-.114.285-.23.374-.346.175-.217.315-.453.421-.707.107-.253.16-.573.16-.957a2.74 2.74 0 0 0-.11-.827 2.624 2.624 0 0 0-.252-.577 2.819 2.819 0 0 0-.58-.606c-.253-.203-.746-.417-1.481-.64-.37-.105-.699-.211-.984-.317a4.296 4.296 0 0 1-.728-.339c-.2-.12-.35-.25-.45-.393a.823.823 0 0 1-.152-.489c0-.378.12-.665.362-.86.145-.129.322-.218.53-.268.207-.05.451-.075.732-.075.415 0 .766.088 1.051.263.287.176.511.447.674.815l1.355-.652c-.242-.585-.626-1.02-1.153-1.308-.528-.287-1.176-.43-1.944-.43a4.88 4.88 0 0 0-1.25.158 2.862 2.862 0 0 0-1.01.468 2.115 2.115 0 0 0-.618.72 2.292 2.292 0 0 0-.256.676 3.237 3.237 0 0 0-.072.644c0 .223.034.458.101.706.068.248.182.475.345.682.129.161.314.33.555.505.242.176.544.333.91.472l1.295.477c.23.089.464.184.703.284.238.1.427.236.567.405.14.17.211.397.211.682 0 .195-.045.36-.135.497-.09.137-.21.247-.361.33a1.723 1.723 0 0 1-.53.18 3.652 3.652 0 0 1-.648.054c-.253 0-.477-.03-.674-.091a1.958 1.958 0 0 1-.942-.636 2.771 2.771 0 0 1-.311-.476l-1.397.618a2.853 2.853 0 0 0 1.17 1.421c.286.173.604.31.955.414.35.103.778.155 1.283.155.342 0 .657-.03.946-.088zm-7.736 0c.289-.059.544-.135.766-.23.221-.095.412-.2.572-.314.16-.114.284-.23.374-.346.174-.217.314-.453.421-.707.107-.253.16-.573.16-.957a2.74 2.74 0 0 0-.11-.827 2.646 2.646 0 0 0-.252-.577 2.809 2.809 0 0 0-.58-.606c-.253-.203-.746-.417-1.481-.64-.37-.105-.699-.211-.985-.317a4.31 4.31 0 0 1-.728-.339c-.199-.12-.349-.25-.45-.393a.822.822 0 0 1-.151-.489c0-.378.12-.665.362-.86.145-.129.322-.218.53-.268.207-.05.451-.075.731-.075.416 0 .766.088 1.052.263.286.176.51.447.673.815l1.355-.652c-.241-.585-.625-1.02-1.152-1.308-.528-.287-1.176-.43-1.944-.43-.432 0-.849.053-1.25.158a2.858 2.858 0 0 0-1.01.468 2.108 2.108 0 0 0-.618.72c-.124.217-.21.442-.257.676a3.252 3.252 0 0 0-.07.644c0 .223.032.458.1.706.067.248.182.475.345.682.129.161.314.33.555.505.241.176.544.333.909.472l1.296.477c.23.089.464.184.702.284.239.1.428.236.568.405.14.17.21.397.21.682 0 .195-.044.36-.134.497-.09.137-.21.247-.362.33a1.718 1.718 0 0 1-.53.18 3.65 3.65 0 0 1-.648.054c-.252 0-.477-.03-.673-.091a1.95 1.95 0 0 1-.942-.636 2.798 2.798 0 0 1-.312-.476l-1.397.618a2.853 2.853 0 0 0 1.17 1.421c.286.173.604.31.955.414.35.103.779.155 1.283.155.343 0 .658-.03.947-.088zM16.47 71.58c.32-.089.631-.304.934-.643.303-.34.583-.845.842-1.513l3.77-9.588h-1.684l-2.314 6.094-2.204-6.094H14.09l3.055 8.392-.396.836a2.594 2.594 0 0 1-.492.811c-.21.234-.512.351-.905.351-.14 0-.272-.011-.395-.033v1.488c.151.022.35.033.597.033.292 0 .598-.045.917-.134zm-8.408-2.942v-5.191c0-.301.066-.632.198-.995a2.18 2.18 0 0 1 .685-.944c.325-.268.701-.401 1.128-.401.505 0 .872.128 1.102.384.23.257.345.652.345 1.187v5.96h1.691v-6.403a3.39 3.39 0 0 0-.282-1.404 1.956 1.956 0 0 0-.866-.945c-.39-.212-.846-.318-1.368-.318-.606 0-1.12.115-1.543.343-.424.229-.787.54-1.09.937v-4.122H6.37v11.912h1.692zm-3.153 0v-1.387a6.264 6.264 0 0 1-.64.033c-.264 0-.478-.034-.643-.1a.866.866 0 0 1-.392-.301c-.095-.134-.16-.3-.193-.502-.034-.2-.05-.434-.05-.702v-4.523h1.825v-1.32H2.991v-3.11H1.308v3.11H.164v1.32h1.144v4.54c0 .451.038.862.114 1.233.075.37.213.685.412.944.2.26.473.46.82.602.349.142.794.214 1.338.214.326 0 .632-.017.918-.051z"/>
    </g>
</svg>
