<svg xmlns="http://www.w3.org/2000/svg" width="21" height="20" viewBox="0 0 21 20">
    <path fill="#00B1F3" fill-rule="nonzero" d="M20.588 11.985v7.25H16.35v-6.764c0-1.7-.613-2.86-2.148-2.86-1.17 0-1.868.782-2.174 1.538-.112.27-.141.647-.141 1.025v7.061h-4.24s.057-11.457 0-12.644h4.24v1.792l-.028.041h.028v-.04c.563-.86 1.569-2.09 3.82-2.09 2.79 0 4.881 1.807 4.881 5.691zM2.956.412C1.524.412.588 1.428.588 2.764c0 1.307.91 2.354 2.312 2.354h.028c1.459 0 2.366-1.047 2.366-2.354C5.267 1.428 4.387.412 2.956.412zM.588 19.235h4.706V6.295H.588v12.94z"/>
</svg>
