<svg xmlns="http://www.w3.org/2000/svg" width="13" height="22" viewBox="0 0 13 22">
    <path fill="#00B1F3" fill-rule="nonzero" d="M12.263.416L9.44.412c-3.17 0-5.219 2.045-5.219 5.211v2.403H1.385a.438.438 0 0 0-.444.432v3.482c0 .238.199.432.444.432h2.837v8.784c0 .239.199.432.444.432h3.702a.438.438 0 0 0 .443-.432v-8.784h3.318a.438.438 0 0 0 .443-.432l.002-3.482a.427.427 0 0 0-.13-.305.45.45 0 0 0-.314-.127H8.81V5.99c0-.979.24-1.476 1.55-1.476h1.901a.438.438 0 0 0 .444-.432V.848a.438.438 0 0 0-.443-.432z"/>
</svg>
