<svg xmlns="http://www.w3.org/2000/svg" width="147" height="26" viewBox="0 0 147 26">
    <g fill="#00B1F3" fill-rule="evenodd">
        <path fill-rule="nonzero" d="M73.456 15.421h-5.07l-1.261 4.575H63L68.385 3h5.254l4.553 14.027 2.975-9.255h3.821L89 20h-3.152l-.993-3.327h-3.688L80.25 20l-5.428-.004-1.366-4.575zM69 13h4l-1.127-3.667-.477-1.667L70.96 6h-.054L70.5 7.681l-.426 1.695L69 13zm13 2h3l-.846-2.62-.357-1.19L83.47 10h-.04l-.305 1.201-.32 1.21L82 15zM80 3h7l-3.5 3L80 3zM20.253 16.703a4.78 4.78 0 0 0-3.755 1.814l-7.285-3.99c.17-.48.264-.998.264-1.532 0-.54-.094-1.053-.27-1.539l7.28-3.984a4.767 4.767 0 0 0 3.76 1.825c2.61 0 4.742-2.084 4.742-4.649C24.989 2.084 22.863 0 20.248 0c-2.616 0-4.741 2.084-4.741 4.648 0 .54.093 1.058.27 1.539L8.501 10.17a4.75 4.75 0 0 0-3.76-1.825C2.131 8.346 0 10.43 0 12.995c0 2.564 2.131 4.648 4.747 4.648 1.53 0 2.896-.718 3.766-1.83l7.28 3.99a4.546 4.546 0 0 0-.275 1.549c0 2.559 2.125 4.648 4.74 4.648C22.875 26 25 23.916 25 21.352c0-2.565-2.131-4.649-4.747-4.649zm0-15.24c1.795 0 3.255 1.43 3.255 3.19s-1.46 3.191-3.255 3.191S17 6.414 17 4.654s1.465-3.191 3.254-3.191zM4.747 16.185c-1.795 0-3.255-1.43-3.255-3.19s1.46-3.191 3.255-3.191S8 11.234 8 12.994s-1.465 3.191-3.254 3.191zm15.506 8.352c-1.795 0-3.254-1.43-3.254-3.19s1.46-3.191 3.254-3.191c1.795 0 3.255 1.43 3.255 3.19s-1.46 3.191-3.255 3.191z"/>
        <path d="M127 5h20v3h-20zM127 11h20v3h-20zM127 17h20v3h-20z"/>
    </g>
</svg>
