<svg xmlns="http://www.w3.org/2000/svg" width="22" height="19" viewBox="0 0 22 19">
    <path fill="#00B1F3" fill-rule="nonzero" d="M21.588 2.86a8.487 8.487 0 0 1-2.499.69 4.306 4.306 0 0 0 1.908-2.454 8.389 8.389 0 0 1-2.754 1.075c-.86-.937-1.917-1.406-3.172-1.406-1.2 0-2.223.434-3.07 1.303-.846.868-1.27 1.918-1.27 3.15 0 .33.036.67.108 1.02a11.855 11.855 0 0 1-4.992-1.372A12.372 12.372 0 0 1 1.89 1.578a4.45 4.45 0 0 0-.592 2.247c0 .763.175 1.471.525 2.124.349.652.82 1.18 1.41 1.585a4.223 4.223 0 0 1-1.961-.565v.055c0 1.075.329 2.02.987 2.833.659.814 1.49 1.326 2.493 1.537a4.389 4.389 0 0 1-1.142.152 5.4 5.4 0 0 1-.82-.069 4.356 4.356 0 0 0 1.532 2.2c.743.574 1.585.87 2.526.889-1.577 1.268-3.373 1.902-5.388 1.902-.385 0-.735-.018-1.048-.055 2.015 1.332 4.237 1.999 6.664 1.999 1.541 0 2.988-.25 4.34-.751 1.353-.501 2.509-1.172 3.467-2.014a13.371 13.371 0 0 0 2.48-2.902 13.1 13.1 0 0 0 1.551-3.426 12.963 12.963 0 0 0 .497-4.157 9.222 9.222 0 0 0 2.177-2.302z"/>
</svg>
